<?xml version="1.0" standalone="no"?>
<!DOCTYPE svg PUBLIC "-//W3C//DTD SVG 1.1//EN" "http://www.w3.org/Graphics/SVG/1.1/DTD/svg11.dtd" >
<svg xmlns="http://www.w3.org/2000/svg">
<metadata>
Created by FontForge 20120731 at Sat May  9 10:35:46 2015
 By Ads
</metadata>
<defs>
<font id="iconfont" horiz-adv-x="1024" >
  <font-face 
    font-family="iconfont"
    font-weight="500"
    font-stretch="normal"
    units-per-em="1024"
    panose-1="2 0 6 3 0 0 0 0 0 0"
    ascent="812"
    descent="-212"
    x-height="792"
    bbox="0 -213 1365 812"
    underline-thickness="50"
    underline-position="-100"
    unicode-range="U+0078-E621"
  />
<missing-glyph horiz-adv-x="374" 
d="M34 0v682h272v-682h-272zM68 34h204v614h-204v-614z" />
    <glyph glyph-name=".notdef" horiz-adv-x="374" 
d="M34 0v682h272v-682h-272zM68 34h204v614h-204v-614z" />
    <glyph glyph-name=".null" horiz-adv-x="0" 
 />
    <glyph glyph-name="nonmarkingreturn" horiz-adv-x="341" 
 />
    <glyph glyph-name="x" unicode="x" horiz-adv-x="1001" 
d="M281 543q-27 -1 -53 -1h-83q-18 0 -36.5 -6t-32.5 -18.5t-23 -32t-9 -45.5v-76h912v41q0 16 -0.5 30t-0.5 18q0 13 -5 29t-17 29.5t-31.5 22.5t-49.5 9h-133v-97h-438v97zM955 310v-52q0 -23 0.5 -52t0.5 -58t-10.5 -47.5t-26 -30t-33 -16t-31.5 -4.5q-14 -1 -29.5 -0.5
t-29.5 0.5h-32l-45 128h-439l-44 -128h-29h-34q-20 0 -45 1q-25 0 -41 9.5t-25.5 23t-13.5 29.5t-4 30v167h911zM163 247q-12 0 -21 -8.5t-9 -21.5t9 -21.5t21 -8.5q13 0 22 8.5t9 21.5t-9 21.5t-22 8.5zM316 123q-8 -26 -14 -48q-5 -19 -10.5 -37t-7.5 -25t-3 -15t1 -14.5
t9.5 -10.5t21.5 -4h37h67h81h80h64h36q23 0 34 12t2 38q-5 13 -9.5 30.5t-9.5 34.5q-5 19 -11 39h-368zM336 498v228q0 11 2.5 23t10 21.5t20.5 15.5t34 6h188q31 0 51.5 -14.5t20.5 -52.5v-227h-327z" />
    <glyph glyph-name="uniE600" unicode="&#xe600;" 
d="M513 574l-377 -377h213v-206h339v206h202z" />
    <glyph glyph-name="uniE601" unicode="&#xe601;" 
d="M510 513q-27 66 -73 109t-96 56.5t-101 2.5t-90.5 -44.5t-63.5 -94t-21 -137.5q2 -49 22 -93t53.5 -79t66 -61t74.5 -57t63 -51q46 -43 97.5 -87t69.5 -62q12 12 64 56t103 93q21 21 61 52.5t72 58.5t65.5 62t54 78t25.5 92q7 76 -15.5 136t-62.5 92t-92.5 42.5
t-104 -3.5t-98 -55.5t-73.5 -105.5z" />
    <glyph glyph-name="uniE602" unicode="&#xe602;" 
d="M285 685v-74q49 0 91 -33.5t67 -93.5q8 -20 27 -32.5t41 -12.5t40.5 12.5t27.5 32.5q26 63 72 93t92 30q60 0 99 -42q48 -53 39 -151q-3 -28 -15 -55.5t-25.5 -47.5t-39.5 -45t-42.5 -38.5t-48.5 -38.5q-59 -46 -84 -70q-51 -49 -114 -103q-1 1 -14 12q-56 48 -103 92
q-25 23 -83 66q-33 24 -50 37.5t-43.5 38t-40 44t-24.5 47t-12 55.5q-5 106 50 163q39 40 93 40v74zM285 685q-44 0 -84 -18.5t-70.5 -53t-48 -88.5t-14.5 -120q1 -49 21 -93t53.5 -78.5t65.5 -60.5t74 -57t63 -50q46 -43 97 -87t70 -62q12 12 63.5 56t101.5 93
q21 20 61.5 51.5t72 58t65 61.5t54 78t24.5 92q6 65 -9 118t-45.5 86.5t-71 51.5t-85.5 18q-71 0 -134.5 -43.5t-97.5 -124.5q-35 84 -96.5 128t-129.5 44z" />
    <glyph glyph-name="uniE603" unicode="&#xe603;" 
d="M1012 553.5q-12 11.5 -29.5 11.5t-29.5 -12l-441 -424l-441 424q-12 12 -29.5 12t-29.5 -11.5t-12 -28t12 -28.5l471 -453q12 -11 29 -11t29 11l471 453q12 12 12 28.5t-12 28z" />
    <glyph glyph-name="uniE604" unicode="&#xe604;" 
d="M168 27v34h718v-34h-718zM886 300v-34h-718v34h718zM886 539v-34h-718v34h718z" />
    <glyph glyph-name="uniE605" unicode="&#xe605;" 
d="M512 502q-51 0 -87 36t-36 87.5t36 87.5t87 36t87.5 -36t36.5 -87.5t-36.5 -87.5t-87.5 -36zM512 711q-35 0 -60.5 -25t-25.5 -60.5t25.5 -60.5t60.5 -25t60.5 25t25.5 60.5t-25.5 60.5t-60.5 25zM512 179q-51 0 -87.5 36.5t-36.5 87.5t36.5 87t87.5 36t87 -36t36 -87
t-36 -87.5t-87 -36.5zM511.5 388q-35.5 0 -60.5 -25t-25 -60.5t25 -60.5t60.5 -25t60.5 25t25 60.5t-25 60.5t-60.5 25zM512 -144q-51 0 -87.5 36.5t-36.5 87.5t36.5 87t87.5 36t87 -36t36 -87t-36 -87.5t-87 -36.5zM511.5 66q-35.5 0 -60.5 -25.5t-25 -61t25 -60.5
t60.5 -25t60.5 25t25 60.5t-25 61t-60.5 25.5z" />
    <glyph glyph-name="uniE606" unicode="&#xe606;" 
d="M510 812q-72 0 -141 -20q100 -36 163.5 -124t63.5 -198q0 -93 -46 -171.5t-124.5 -124t-171.5 -45.5q-74 0 -139.5 29.5t-113.5 81.5q14 -126 85 -229.5t183 -163.5t241 -60q105 0 199.5 40.5t163.5 109t109.5 163.5t40.5 199.5t-40.5 199.5t-109.5 163.5t-163.5 109
t-199.5 40.5z" />
    <glyph glyph-name="uniE607" unicode="&#xe607;" 
d="M921 301l102 137l-157 67l20 170l-170 -20l-68 157l-137 -102l-137 102l-67 -157l-170 20l20 -170l-157 -67l102 -137l-102 -137l157 -68l-20 -170l170 20l67 -157l137 102l137 -102l68 157l170 -20l-20 170l157 68zM383.5 492q26.5 0 45.5 -18.5t19 -45t-19 -45
t-45.5 -18.5t-45 18.5t-18.5 45t18.5 45t45 18.5zM511.5 45q-79.5 0 -135.5 56t-56 136h383q0 -80 -56 -136t-135.5 -56zM639.5 365q-26.5 0 -45.5 18.5t-19 45t19 45t45.5 18.5t45 -18.5t18.5 -45t-18.5 -45t-45 -18.5z" />
    <glyph glyph-name="uniE608" unicode="&#xe608;" horiz-adv-x="1366" 
d="M1365 -212v512h-341q0 93 45.5 171.5t124.5 124t171 45.5v171q-104 0 -198.5 -40.5t-163 -109t-109.5 -163.5t-41 -199v-512h512zM512 -212v512h-341q0 93 45.5 171.5t124 124t171.5 45.5v171q-104 0 -199 -40.5t-163.5 -109t-109 -163.5t-40.5 -199v-512h512z" />
    <glyph glyph-name="uniE609" unicode="&#xe609;" 
d="M752 -43h-510q-25 0 -42 -19t-17 -47t17 -47.5t42 -19.5h510q25 0 42 19.5t17 47.5t-17 47t-42 19zM987 554q-6 6 -13 11q-28 19 -61 19q-44 0 -75.5 -31t-31.5 -76q0 -54 44 -86q-15 -18 -32.5 -36t-45 -37.5t-42.5 -15.5q-18 5 -31 39.5t-19.5 82.5t-9 74t-3.5 45
q39 6 64.5 36t25.5 69q0 45 -31 76t-75.5 31t-75.5 -31t-31 -76q0 -30 15 -55t41 -39q-7 -17 -15.5 -36t-22 -46t-28.5 -44t-26 -17q-12 0 -26.5 18t-28.5 46t-22 46t-14 35q24 14 38.5 38.5t14.5 53.5q0 45 -31 76t-75.5 31t-75.5 -31t-31 -76q0 -34 20 -62t52 -39
q10 -4 20 -5q-1 -9 -2.5 -23.5t-7.5 -53.5t-13.5 -69t-19.5 -56t-26 -29q-18 -5 -43.5 12t-40.5 33.5t-27 33.5q45 32 45 87q0 45 -31.5 76t-75.5 31q-13 0 -26 -3q-49 -5 -68 -53q-13 -24 -13 -51q0 -36 22 -64q12 -18 31 -28q25 -14 54 -14q7 0 16 1q4 -28 10.5 -65
t20.5 -103t34 -109.5t42 -44.5q24 -1 548 -1q14 0 28.5 17.5t26 45t22.5 61t19.5 67t14.5 61t9 44.5l3 17l1 9h11q28 0 53 14q33 11 43 46q11 22 11 46q0 46 -33 77z" />
    <glyph glyph-name="uniE60A" unicode="&#xe60a;" 
d="M834 491v-1v-1q1 -3 1 -6q1 -12 -8 -34q-15 -36 -57 -68q-13 -10 -35 -17q-23 -7 -24 -7q-11 -2 -46 -7q-7 -1 -19.5 -3t-16.5 -2q-28 -4 -32 -5q-8 -2 -40 -12q-4 -1 -4.5 3t-1.5 11.5t-2 10.5q-5 40 -6 50q-2 21 -2 40q0 16 1 64q0 10 1.5 29.5t1.5 27.5q1 23 11 40
q12 23 35 35q35 19 71 9q26 -8 38 -34q7 -15 6 -34l2 -8q26 13 52 11q13 -1 27 -9q17 -11 29 -31q10 -17 14 -34q0 -1 4 -18zM567 150q-2 8 -19.5 77.5t-19.5 85.5v0q-39 4 -95 -8q-23 -4 -59 -19.5t-61 -29.5l-24 -14q-24 -15 -34.5 -40t-11.5 -46q-2 -17 2.5 -44.5
t14.5 -41.5q15 -21 42 -29.5t50 0.5q0 -7 5 -19q1 -2 2.5 -6.5t2.5 -5.5q18 -40 51.5 -55.5t74.5 -2.5q56 18 78 73q6 23 5 37q6 38 -4 88zM268 312q58 1 70 4q110 22 181 15v0q7 -1 10 0t2.5 3.5t-0.5 5.5q-2 11 -6 32t-5 30q-15 107 -34 155q-19 50 -70 61
q-64 14 -107 -23.5t-37 -102.5q-65 0 -87 -45q-10 -19 -6.5 -43t14.5 -44.5t31.5 -34.5t43.5 -13zM859 286q-14 25 -56 38q-60 18 -130 10q-33 -4 -122 -18q-5 0 -5.5 -3t1.5 -6q2 -10 8 -33.5t7 -29.5q5 -15 13.5 -40t19.5 -58t17 -49q22 -44 38 -54q43 -26 93 1
q49 26 41 82q-3 9 -7 20v-1q11 -3 17 -4q44 0 60 24q16 22 21 49q7 32 -16 72z" />
    <glyph glyph-name="uniE60B" unicode="&#xe60b;" 
d="M65 302v-23h178v23v23h-178v-23zM65 664h178v-46h-178v46zM332 664h625v-46h-625v46zM65 -14h178v-46h-178v46zM332 302v-23h625v23v23h-625v-23zM325 -14h632v-46h-632v46z" />
    <glyph glyph-name="uniE60C" unicode="&#xe60c;" 
d="M140 376q-31 0 -53 -21.5t-22 -52.5t22 -53t53 -22t52.5 22t21.5 53t-21.5 52.5t-52.5 21.5zM512 376q-31 0 -52.5 -21.5t-21.5 -52.5t21.5 -53t52.5 -22t53 22t22 53t-22 52.5t-53 21.5zM885 376q-31 0 -53 -21.5t-22 -52.5t22 -53t53 -22t52.5 22t21.5 53t-21.5 52.5
t-52.5 21.5z" />
    <glyph glyph-name="uniE60D" unicode="&#xe60d;" 
d="M790 243q82 0 126 15.5t44 41t-44 41t-126 15.5q-71 0 -186 -30q-3 11 -8 20q102 60 152 111q58 57 78.5 99.5t2.5 60.5q-8 8 -22 8q-49 0 -138 -89q-50 -51 -111 -152q-9 5 -19 8q29 114 29 186q0 81 -15.5 125.5t-40.5 44.5t-40.5 -44.5t-15.5 -125.5q0 -72 29 -186
q-10 -3 -19 -8q-61 101 -111 152q-89 89 -138 89q-14 0 -22 -8q-18 -18 2.5 -60.5t78.5 -99.5q50 -51 152 -111q-5 -9 -8 -20q-115 30 -186 30q-82 0 -126 -15.5t-44 -40.5t44 -41t126 -16q71 0 186 30q3 -10 8 -20q-102 -60 -152 -111q-58 -57 -78.5 -99.5t-2.5 -60.5
q8 -8 22 -8q49 0 138 89q51 51 111 153q9 -5 19 -8q-29 -115 -29 -187q0 -81 15.5 -125t40.5 -44t40.5 44t15.5 125q0 72 -29 187q10 3 19 8q60 -102 111 -153q89 -89 138 -89q14 0 22 8q18 18 -2.5 60.5t-78.5 99.5q-50 51 -152 111q5 10 8 20q115 -30 186 -30zM640 302
q92 22 150 22q65 0 105 -11q22 -6 31 -13q-9 -8 -31 -14q-40 -11 -105 -11q-58 0 -150 22v5zM692 513q75 76 113 80q-1 -12 -12 -32q-21 -36 -67 -82q-41 -41 -121 -91l-4 4q50 80 91 121zM419 388q-80 50 -121 91q-46 46 -67 82q-11 20 -12 32q38 -4 113 -80
q41 -41 91 -121zM234 275q-65 0 -105 11q-22 6 -31 14q9 7 31 13q40 11 105 11q58 0 150 -22v-5q-92 -22 -150 -22zM332 86q-75 -76 -113 -80q1 12 12 32q21 36 67 82q42 41 122 91q2 -2 4 -3q-50 -81 -92 -122zM604 211q80 -50 122 -91q46 -46 67 -82q11 -20 12 -32
q-38 4 -113 80q-42 41 -92 122q2 1 4 3zM498 683q6 22 14 31q8 -9 14 -31q10 -40 10 -105q0 -58 -21 -150h-6q-21 92 -21 150q0 65 10 105zM526 -83q-6 -23 -14 -31q-8 8 -14 31q-10 39 -10 104q0 59 22 151h4q22 -92 22 -151q0 -65 -10 -104zM512 236q-27 0 -45.5 18.5
t-18.5 45.5t18.5 45.5t45.5 18.5t45.5 -18.5t18.5 -45.5t-18.5 -45.5t-45.5 -18.5zM690 1q-22 15 -46 41t-37.5 43.5t-13.5 18.5q2 -9 3.5 -23.5t4 -57.5t-3.5 -71q17 -32 37 -51t36 -19q5 0 10 2q39 15 10 117zM667 -85q-16 9 -38 44q3 24 3 51q15 -15 29 -27q13 -48 6 -68
zM427 647q-40 70 -73 70q-5 0 -10 -2q-38 -15 -10 -117q19 -14 43.5 -39.5t38.5 -44.5l15 -19q-2 10 -3.5 24.5t-4.5 57t4 70.5zM392 589q-15 15 -29 27q-13 48 -6 68q16 -9 38 -44q-3 -24 -3 -51zM165 215q-84 -47 -69 -84q9 -21 48 -21q36 0 69 12q16 21 41.5 45t43.5 38
l19 14q-10 -2 -24.5 -3.5t-57.5 -3.5t-70 3zM195 150q-30 -8 -51 -8q-10 0 -17 2q9 16 45 38q24 -2 50 -2q-14 -15 -27 -30zM928 468q-9 21 -48 21q-32 0 -69 -12q-16 -21 -42 -45t-44 -38l-18 -14q10 2 24.5 4t57.5 4t70 -4q84 47 69 84zM852 417q-24 2 -50 2q14 15 27 30
q31 8 51 8q10 0 17 -2q-9 -16 -45 -38zM326 -6q-25 -92 11 -107q5 -2 10 -2q35 0 79 78q-3 33 -2 64.5t4 54.5l3 22q-43 -63 -105 -110zM350 -82q-5 17 5 58q18 15 37 34q0 -21 2 -40q-26 -43 -44 -52zM687 712q-5 2 -10 2q-17 0 -38.5 -20.5t-40.5 -57.5q3 -25 2 -56.5
t-4 -58.5l-3 -27q5 8 14.5 20.5t37 42t53.5 47.5q24 94 -11 108zM669 622q-18 -15 -37 -33q0 21 -2 40q26 43 44 52q6 -18 -5 -59zM206 485q-26 10 -61 10q-37 0 -46 -20q-7 -18 13.5 -43t62.5 -47q32 3 63.5 2t54.5 -4l23 -3q-74 58 -110 105zM130 462q6 1 15 1q18 0 43 -6
q16 -18 34 -38q-21 0 -40 -1q-42 25 -52 44zM849 214q-28 -5 -59.5 -4t-56.5 5l-26 4q70 -52 110 -105q29 -10 62 -10q37 0 46 20q7 18 -12.5 41.5t-63.5 48.5zM879 136q-18 0 -43 6q-16 18 -34 38q21 0 40 1q42 -25 52 -44q-6 -1 -15 -1z" />
    <glyph glyph-name="uniE60E" unicode="&#xe60e;" 
d="M612 306q2 1 5 3q6 5 6 13q1 10 -9 16q9 8 6 17t-14 12q3 6 1 12q-5 13 -21 11q1 12 -7 16q-7 4 -13 1q1 11 -7 16q-11 8 -22 -1q-6 13 -19 9q-7 -2 -10 -9q-7 13 -20 11q-8 -2 -11 -10q-7 7 -15 6q-13 -3 -11 -23q-14 3 -20 -7q-4 -7 0 -14q-13 4 -21.5 -7.5t-1.5 -21.5
q-11 -4 -12.5 -16.5t7.5 -17.5q-5 -5 -6 -12q-1 -11 9 -16q-9 -7 -6 -16q4 -10 18 -10q-4 -9 0 -18q5 -11 19 -12q-3 -13 8 -19q10 -5 20 4q0 -12 13 -16q12 -5 21 6q6 -8 17 -7t14 12q8 -6 17 -3q10 2 13 13q11 -4 21 4t5 18q10 0 17 8.5t4 17.5q11 2 13 13t-8 17zM614 326
q1 -12 -10 -12q1 9 0 17q6 1 10 -5zM611 350q-1 -6 -9 -10q-2 9 -5 18q3 1 5 3q10 -2 9 -11zM597 379q6 -6 -1 -11h-3q-1 0 -1 -1q-4 7 -10 13q10 4 15 -1zM564 398q0 1 1 1q5 8 12 1q5 -6 0 -14q-6 7 -14 12h1zM539 411q2 5 8 6.5t10 -3.5q2 -4 -1 -12q-8 5 -17 8v1z
M517 422.5q5 3.5 10 0t4 -9.5q-7 1 -12 2t-6 -4q-1 8 4 11.5zM491 426q9 -1 11 -13q-10 2 -20 0q-2 5 1 9.5t8 3.5zM469 419q2 -2 5 -8q-8 -2 -15 -7q-1 5 -1 8q0 4 3.5 7t7.5 0zM440 398q5 3 11 1q-7 -6 -13 -14q-6 8 2 13zM421 376q3 1 11 1q-6 -10 -10 -22q-1 2 -3 3
q-8 2 -6 9t8 9zM403 339q2 12 15 11q1 0 2 1q-3 -10 -4 -20v-4q-4 0 -7 -2q-8 5 -6 14zM415 319q1 -10 3 -20q-7 -1 -10.5 3.5t-1 10t8.5 6.5zM411 277q-11 9 9 14q3 -9 7 -16h-1q-1 -1 -3 -2q-8 0 -12 4zM448 225q-8 8 0 15q2 2 0.5 4.5t-4.5 2.5q-13 -3 -18 6q-5 10 4 15
h1q14 -22 37 -33q-2 -7 -8 -10.5t-12 0.5zM495 223q-2 -9 -10 -10q-7 0 -10.5 5.5t-0.5 11.5q1 1 1 2q10 -4 20 -6v-3zM503 222v3q11 0 20 1q1 -2 3 -5q-3 -10 -12.5 -9t-10.5 10zM545 222q-8 -2 -13 6q11 2 21 8v-1q1 -10 -8 -13zM561 241q8 5 15 11q6 -24 -15 -11z
M515 236q-31 -2 -56 17t-31 50q-9 40 18 74.5t67 27.5q2 -1 3 0q32 -4 54.5 -27t23.5 -55q1 -34 -22 -59.5t-57 -27.5zM593 261q-4 -3 -10 -1q7 9 12 18q4 -3 3.5 -9t-5.5 -8zM599 286h-1q3 8 5 18h1q4 -2 5 -4q5 -3 2 -8q1 -11 -12 -6zM950 246q-17 33 -47.5 53.5
t-66.5 22.5q33 6 58.5 29t38.5 55q30 74 -15 159q-46 84 -123 99q-76 14 -142 -37q19 75 -19 128q-21 30 -58.5 43t-77.5 10q-37 -3 -72.5 -21t-61.5 -44.5t-38.5 -63.5t-4.5 -74q-27 28 -62 39t-71 1q-38 -10 -68.5 -35.5t-47.5 -60.5q-17 -34 -16.5 -72t14 -70.5
t42.5 -56.5t66 -30q-40 -12 -68 -42.5t-38.5 -68.5t-6.5 -80t24 -79q21 -39 57.5 -68t76.5 -31q36 -3 67 17t50 53q-14 -51 5 -101t62.5 -81.5t96.5 -33.5q55 -1 99.5 29.5t64 80.5t5.5 103q31 -27 71.5 -34t78 4.5t70.5 37t52 61.5q20 38 22.5 79t-17.5 80zM649 613
q72 49 138 38q73 -11 117 -89q23 -42 25.5 -90.5t-23 -89t-77.5 -49.5q5 10 3 24q1 0 2 1q39 15 56.5 51t12 75.5t-27.5 73.5q-39 60 -92 75q-55 17 -127 -31q-3 5 -8 9q1 0 1 1v1zM821 290q34 -1 59.5 -20t36 -47t9 -60.5t-17.5 -60.5q-37 -63 -107.5 -77t-127.5 32
q-3 15 -12 33q47 -43 77 -18q34 28 -24 81q64 -35 91 -2q27 34 -50 77q55 -12 73 14q16 22 -7 48zM500 -150q-110 -2 -126 183q13 9 26 30q-10 -55 31 -65q23 -5 37 14.5t21 51.5q4 -35 15.5 -56t38.5 -20q42 3 32 61q23 -35 52 -38q2 -61 -33 -110.5t-94 -50.5zM382 170
q-2 -2 -6 -5.5t-6 -4.5q-8 7 -16 15q11 4 15 10q13 -14 27 -24h1q-1 -1 -5 -8q-4 -6 -4 -7q-7 4 -15 11q8 5 11 11q1 1 0 2t-2 0zM327 47q-22 -24 -54 -40t-60 -10q-31 5 -52.5 29t-33.5 56q-22 65 -13 117q11 57 84 90q17 -23 63 -26q-13 -3 -20 -5t-18 -6.5t-16.5 -9
t-10.5 -11.5t-4.5 -16t5.5 -20q21 -43 73 -24q-41 -42 -11 -80q30 -36 72 6q-12 -31 -4 -50zM322 523q-40 34 -63 4t21 -74q-63 24 -80 -23q-9 -25 9.5 -41.5t49.5 -25.5q-40 -4 -58 -21q-56 25 -88.5 79t-10.5 110q12 31 37.5 48t55.5 17.5t60 -8t55 -24.5q2 -1 4 -1
q-4 -17 8 -40zM394 576q-23 25 -45 21q2 59 32.5 105t84.5 60q25 8 55.5 4t50.5 -22q38 -34 44 -124q-23 -6 -39 -48q1 68 -38 69q-27 1 -36.5 -22t-10.5 -58q-11 37 -30.5 59t-47.5 9q-28 -14 -20 -53zM463 112q-10 2 -20 5q1 2 1 3t-1 1q1 1 1 2q1 2 3 5.5t2 5.5v1
q10 -3 21 -4q-1 -1 -2 -3q0 -1 -1 -2q-5 -9 -5 -10q-2 -2 1 -4zM435 120q-8 3 -15 7q5 4 8 10q2 4 2 5q8 -3 15 -5q-8 -4 -10 -17zM467 113l6 10q4 5 4 6q6 0 12 -1q-1 -2 -2 -11q-1 -2 -2 -9q-10 1 -19 3q1 1 1 2zM329 301q-7 75 44 131t127 64q1 0 2 1q76 -7 131.5 -50
t61.5 -115t-43 -127.5t-122 -65.5q-76 -10 -135.5 37.5t-65.5 124.5zM264 311q18 1 25 0q1 -20 5 -38h-1q-32 -6 -57 3q-14 4 -24 14t-12 23t13 26q4 4 9 6.5t11 4t10 3t12.5 2.5t11.5 1t12.5 1t10.5 1t4 -1q-4 -16 -4 -33h-1q-19 -2 -27 -4q-3 -1 -2.5 -5.5t4.5 -3.5z
M295 265q2 -8 6 -19q-2 0 -3 -1q-9 -4 -17 -10q-5 -3 -3 -7q3 -5 7 -4q10 4 20 9v0q6 -13 11 -23q-11 -11 -20 -18q-4 -2 -9 -6q-11 -7 -22 -10q-26 -7 -48.5 8t-10.5 42q7 14 21.5 20.5t36.5 10.5t31 8zM343 425q1 -1 4 -2t4 -1q-4 -7 -7 -12q-3 1 -11 4q-1 0 -3.5 0.5
t-3.5 0.5q3 6 8 12q6 -1 9 -2zM338 432q7 9 15 18q3 -5 7 -7q3 -2 6 -3q-6 -7 -11 -14q-7 5 -17 6zM331 409q8 -3 10 -3q-4 -7 -7 -13q-5 4 -17 5q3 7 7 14q1 -1 4 -2zM324 390q1 0 3.5 -1t4.5 -2q-3 -7 -5 -14l-1 -1q-1 0 -6 1l-12 4q3 7 6 16q6 -1 10 -3zM312 268
q9 3 11 5q1 -7 3 -13q0 1 -1 1q-7 2 -17 -8q-2 6 -4 13zM303 271q-2 10 -3 21q13 -4 20 -2q1 -7 2 -13q-2 0 -12 -4q-3 -1 -7 -2zM317 369q7 -3 8 -3q-3 -9 -4 -17q0 1 -1 1q-2 2 -10 3q-3 1 -8 1q2 9 5 19q2 -1 10 -4zM309 347q8 -2 10 -1q1 0 1 1q-1 -9 -1 -16q-3 1 -11 1
h-9q1 8 2 17q5 -2 8 -2zM307 326q8 -1 11 0q-1 -16 1 -31h-10q-4 1 -10 1q0 6 -1 11q4 -1 8 0q8 1 10 4t-1 4q-1 0 -10 -2q-2 -1 -7 -1v2v3q0 4 1 9h8zM315 235q-3 6 -5 14q3 3 7 4q1 1 4.5 2t4.5 2q1 0 1 1q2 -8 5 -16q-1 0 -8 -3q-4 -2 -9 -4zM326 234q7 3 8 5
q4 -10 9 -19q0 1 -2 0q-2 0 -5 -1.5t-4 -2.5q-3 -1 -7 -1q-4 7 -8 16q5 1 9 3zM344 218q0 1 -1 2q5 -9 11 -17q-1 -1 -3.5 -2.5t-3.5 -1.5t-9 -4q-5 7 -10 15q11 2 16 8zM357 198q4 -5 9 -10q-2 -1 -4.5 -3t-3.5 -3q-3 -1 -7 -3q-5 5 -10 12q11 4 16 7zM463 503q-1 1 -2 2.5
t-2 2.5t-1 3q6 2 15 4q0 -4 1 -8l3 -6q-18 -3 -36 -10q0 7 -7 12q9 3 19 7q1 -8 7 -11q2 0 3 1.5t0 2.5zM540 514q1 1 2.5 3t1.5 3q5 0 10 -2l-2 -8q-1 -4 -2 -9q-7 2 -14 3q4 9 4 10zM535 517q-3 -8 -3 -13q-4 1 -7 1q-1 5 0 10q1 1 2 3.5t1 4.5q5 -1 9 -1q-1 -2 -2 -5z
M538 531v2l1 30q0 5 -4 5.5t-5 -3.5l-5 -30q-1 -2 0 -3q-10 0 -19 -2h-2q-1 1 -2 1h-1v30q1 19 1 20q1 8 2 19q1 30 30 21q19 3 23.5 1.5t7.5 -16.5q2 -9 3 -27q1 -24 -4 -53q-13 4 -26 5zM519 505h-11v11q0 1 0.5 3.5t0.5 3.5h12q-3 -6 -2 -18zM501 521v-5q0 -5 1 -11
q-4 -1 -8 -1q-1 0 -1 -1q-3 0 -9 -1v1q0 1 -2 3l-2 3q-1 3 -2 8q7 1 15 3q4 -4 7 1h1zM641 478l10 -8q-1 -1 -2.5 -3.5t-2.5 -2.5q-1 -2 -7 -8q-5 5 -8 7q4 3 6 6q5 5 5 8zM711 340q-3 0 -8 1q0 6 -1 9q2 0 5 -1q5 -1 7 0v-5v-3l-2 -1h-1zM715 334q1 -7 1 -14q-1 0 -4 -1h-7
q0 9 -1 16q3 0 6 -1h5zM651 177q-2 2 -4 6l6 6q3 -3 5 -6q1 -1 2 -3t2 -3q-2 -3 -6 -6l-3 3q-2 2 -2 3zM652 167l-9 -9q-1 1 -2.5 3t-1.5 3l-6 8q6 4 10 8q1 -3 3 -6q3 -5 6 -7zM656 193q4 4 6 7l2 -2l3 -3q4 -4 7 -4q-3 -4 -7 -9q-1 1 -4 5q-3 3 -7 6zM671 200q-1 1 -3 2
t-2 2q5 6 8 11l7 -7l3 -2q-3 -6 -8 -12q0 2 -5 6zM684 213q-3 2 -8 6q4 5 7 10q1 -1 8 -5q1 -1 3 -2q-2 -4 -6 -11zM684 233q4 7 7 13q0 -1 1 -1q3 -2 7 -4q1 -1 3 -2l-6 -12q-1 0 -2 1zM701 246q-6 2 -7 3h-2q3 8 5 16q4 -7 11 -7q-2 -6 -4 -14l-2 2h-1zM704 266q-2 1 -5 5
q2 6 3 12l6 -3q4 -1 5 -1q-1 -6 -3 -15q-1 1 -3 1t-3 1zM708 355h-7q-2 8 -2 9l-1 1v2h4h1q6 0 7 1q2 -7 3 -14q-1 1 -5 1zM703 372h-3q-2 0 -3 -1q-2 8 -5 13h1q2 0 9 3l1 1h2q2 -6 4 -15q-1 0 -6 -1zM699 393q-7 -4 -8 -5v-1q-4 9 -7 15q2 1 8 3q1 0 3 1t3 1q2 -4 5 -12
q-1 0 -4 -2zM689 411q-4 -2 -8 -5q-3 6 -6 11q11 -1 16 5l4 -8q-1 0 -3 -1.5t-3 -1.5zM689 426q-1 0 -3.5 -1.5t-3.5 -2.5q-3 -1 -8 -1q-1 0 -2 -1q-3 5 -7 10q5 1 9 4t6 6q5 -6 9 -14zM671 439q-4 -3 -10 -3l-1 -1q-4 5 -5 6q6 5 7 6q7 5 7 7q4 -4 7 -8q-1 -1 -2.5 -3.5
t-2.5 -3.5zM658 451q-1 -1 -3.5 -3t-3.5 -3q-4 5 -8 8q4 3 7 6q6 5 7 7l9 -9q-1 0 -8 -6zM512 116q0 9 -2 12v0q9 0 19 2v-1q0 -4 1 -13q0 -1 0.5 -3.5t0.5 -3.5q-9 -1 -19 -2q1 5 0 9zM492 117q2 9 2 11h12l-1 -1q0 -1 1 -12q1 -3 1 -8q-7 0 -15 1h-3q2 7 3 9zM551 101v-1
q2 -6 6 -18.5t4 -14.5q5 -16 6 -20q4 -20 -10 -37.5t-33 -5.5q-6 3 -10.5 8t-7.5 12.5t-4.5 13t-3 15.5t-2 14.5t-1 16t-0.5 13.5q28 -1 56 4zM537 110q0 1 -0.5 3.5t-0.5 3.5q-2 7 -3 13l16 4q3 -7 5 -12q0 -1 1.5 -3.5t2.5 -4.5q-10 -2 -21 -4zM553 135q6 1 11 3
q5 -9 7 -20q-2 -1 -4 -1.5t-3 -0.5l-2 5q-2 3 -3 3q-2 4 -6 11zM568 139q7 2 14 5q1 -5 3 -10q3 -7 4 -9q-6 -3 -12 -5q-2 10 -9 19zM587 146q6 3 9 5q2 -5 4 -9q4 -7 6 -9q-3 -2 -10 -5q-1 2 -3 5t-2 4q-2 4 -4 9zM605 144q-2 3 -5 8l10 5q4 -5 7 -8q0 -1 1.5 -3.5
t2.5 -3.5q-4 -3 -9 -6q-1 2 -4 4.5t-3 3.5zM614 160q6 4 14 9q1 0 1 1q2 -4 5 -9l2 -3q1 -3 1 -4q-4 -4 -10 -8q-1 2 -6 7q-2 3 -7 7zM677 178q-3 -4 0 -6q25 -20 33 -27q7 -6 13.5 -15t13.5 -21.5t2 -22.5t-24 -13q-30 -6 -80 60q-1 2 -2 3q25 18 44 42zM679 180
q9 12 17 27q2 -3 9 -6q13 -7 14 -8q7 -4 10 4q2 6 -5 9q-1 0 -13 4l-6 2q-1 0 -2 0.5t-1.5 0.5t-1.5 1q7 13 12 26q0 -1 1 -1q27 -12 39 -18q17 -10 28 -19q12 -11 13.5 -15.5t-3.5 -20.5q-6 -15 -11 -18t-20 -2t-34 10q-8 3 -23 12t-23 12zM709 286l-3 1q-2 1 -4 1
q2 7 2 13q1 -1 4 -1l2 -1q1 0 2.5 -1t2.5 -1q0 -6 -1 -12q-1 0 -5 1zM712 305q-1 0 -3.5 0.5t-3.5 1.5v9q2 0 7 -1h4v-10h-2h-2zM692 440q27 22 42 28q12 6 33 3t26 -18q4 -12 -1.5 -25.5t-16.5 -20.5q-7 -4 -24 -11q-30 -13 -34 -15q-9 34 -25 59zM687 448q-11 15 -25 26v0
q2 1 5 3.5t5 3.5t5.5 3t4.5 3q3 2 3 5.5t-3 6t-7 0.5t-11 -8q-6 -6 -8 -10q-1 -1 -1 -2q-13 10 -24 17q1 0 1 1q2 0 3 1q5 7 10 16q6 9 13.5 17.5t17 17.5t18.5 14t18 7t16 -3.5t12 -18.5q9 -22 -10 -50.5t-43 -49.5zM639 479h-2l-4 -7q-2 -3 -5 -6l-10 6q8 8 10 15
q6 -4 11 -8zM619 482q-2 -3 -4 -7q-8 5 -15 8l6 8q3 4 4 6q5 -3 13 -7q-1 -1 -2 -4t-2 -4zM600 495l-5 -10l-12 6q3 2 6 8q3 5 4 7q5 -3 10 -5q0 -1 -3 -6zM584 502q-3 -6 -4 -9v-1q-5 2 -9 3l3 9q4 6 4 7q2 0 9 -3q-1 -1 -3 -6zM568 506q-2 -5 -2 -9q-7 2 -12 3q2 4 3 8
q3 8 3 9q6 -2 13 -4q-3 -1 -5 -7zM447 619q32 -14 44 -90q-8 -1 -17 -3q-1 1 -2 3l-1 1h-1q-1 3 -2 4q-3 5 -6 9q-2 3 -5 9t-5 9t-5.5 1.5t-2.5 -5.5q2 -9 10 -25l5 -9q-14 -4 -26 -8q-1 2 -3 4q-13 25 -23 40q-1 3 -1 4q-3 9 -3.5 20.5t2.5 24t13 15.5t29 -4zM430 501
q2 -2 3 -4q1 -1 2 -3.5t1 -3.5h1l-10 -5q0 1 -6 6l-5 4q6 3 14 6zM417 487q3 -3 5 -4q-9 -5 -16 -10v1q-1 4 -6 7l-4 2h-1q7 5 17 9zM396 476q1 0 2.5 -2t3.5 -3h1q-9 -5 -16 -11q-1 2 -3.5 3.5t-2.5 2.5q-1 0 -3 1.5t-2 2.5q6 5 14 10h1l1 -1l1 -1q3 -1 3 -2zM377 460
q1 0 3 -2l2 -2q-6 -6 -12 -11q-1 0 -3 1t-3 1q-4 2 -8 6q8 7 15 13zM348 460v1q-1 7 -13 15q-13 8 -18 8q-2 0 -3.5 -2t0 -4.5t3.5 -4.5t5.5 -4t4.5 -3q12 -10 15 -10h1q-22 -25 -36 -55q-2 3 -11 5l-16 4q-4 0 -6 -4t2 -6q5 -2 16 -6q8 -3 11 -3q-2 -6 -4 -11q-2 -6 -4 -14
q-13 1 -28.5 5t-33.5 12t-23.5 20t2.5 29q27 44 103 -7q2 -1 4 0t2 3.5t-2 4.5q-24 15 -38 32q-13 16 -15 23q-10 14 9 25q7 29 31 12q12 -6 29.5 -25.5t26.5 -26.5q-7 -5 -14 -13zM310 90q-14 -6 -29 -1.5t-21 19.5q-2 8 -2 16t1 14t6 13.5t8.5 11.5t11.5 10.5t12 9.5
t13 9.5t11 8.5q7 -11 16 -22q-2 -3 -6 -7q-5 -7 -6 -9q-2 -2 1 -4.5t5 -1.5v1q3 0 8 5q4 3 6 6l18 -18q-23 -30 -28 -37q-17 -21 -25 -24zM396 150q5 7 6 7q4 -3 8 -5q0 -1 -1.5 -2.5t-1.5 -2.5l-8 -8v-1q-2 1 -8 5q1 1 5 7zM402 137q5 4 9 8q2 3 4 5q5 -3 9 -5
q0 -1 -0.5 -3t-0.5 -3q-2 -5 -6 -10v-1q-7 3 -16 9h1zM423 114q10 -4 23 -8q-2 -2 -4 -11q-3 -12 -2 -20q1 -2 3.5 -2.5t3.5 1.5l3 9q2 6 3 8q0 1 2.5 5t2.5 7q14 -4 27 -5q-2 -22 -7 -38q-4 -14 -9 -24q-7 -15 -12 -18.5t-21 -2.5q-22 -7 -23 15q-6 10 -6 20q0 8 4 26
q2 12 12 38zM635 20q-1 1 -3.5 1t-3.5 -1q-19 2 -36 20.5t-27 42.5q-2 7 -5 16q-1 2 -1 4q14 3 28 9v-2q2 -2 4.5 -7.5t3.5 -7.5l7 -15q3 -2 6.5 -1t3.5 5t-7 16l-10 15l15 7q7 4 15 9q7 -9 12.5 -18t13 -22t10.5 -24.5t3.5 -22t-7 -17t-22.5 -7.5zM812 239q-15 -9 -31 -5
q-9 1 -65 13h-2q5 14 8 28q1 -3 11 -5q16 -4 19 -4q5 1 5.5 5.5t-4 6t-22.5 2.5q-7 0 -9 -2q3 14 3 26h1q33 -6 62 1q1 -1 2 -1q25 -13 29 -25q-3 -19 -7 -40zM727 312h-1q0 13 -1 27q9 -2 18 -3q13 -2 17.5 2t0.5 8q-3 3 -15 4q-9 0 -20 2q-1 1 -3 0q-2 12 -4 20h1v1
q14 6 29 10t32 5t27.5 -8t10.5 -29q0 -22 -16 -32.5t-36.5 -9t-39.5 2.5zM769 395q57 31 28 68q-26 33 -76 7q55 68 17 101q-33 28 -81 -26q9 31 1 51q4 2 15.5 7.5t16 7.5t15 6t17 5.5t15.5 3.5t17.5 1.5t16.5 -2.5q50 -10 89 -65q16 -23 24.5 -51t7.5 -55.5t-16.5 -50.5
t-44.5 -35q-1 0 -2 -1q-11 34 -60 28zM637 518l-4 -6q-3 -5 -6 -9q-1 -3 0 -5h1q-14 8 -28 14q4 1 9 8q2 3 5 8t5 7q2 3 -0.5 6.5t-6 3.5t-6.5 -3q-1 -3 -5 -10.5t-6 -11.5q-1 -3 0 -5q-12 5 -22 8q4 24 10 42q4 9 9.5 19t14 20t19.5 9.5t20 -15.5q20 -29 -9 -80zM498 794
q39 3 74.5 -9.5t54.5 -42.5q29 -46 13 -125h-1q-6 4 -13 4q-2 86 -40 126t-106 30q-65 -10 -104 -63t-34 -118v-1q-4 -1 -7 -4q-1 0 -1 -1h-1v2v1q-17 75 35.5 135.5t129.5 65.5zM353 583q15 2 20 0t15 -14q4 -4 16 -22l1 -2q10 -20 23 -33q-10 -4 -22 -10q0 1 -10 11
q-12 15 -15 17q-3 3 -6 0.5t-1 -5.5t13 -19q0 -1 2.5 -4.5t4.5 -5.5q-14 -8 -26 -17q-11 10 -22.5 25t-20 32t-2 30.5t29.5 16.5zM85 546q31 61 97 84q40 14 72 1.5t70 -45.5q1 -1 2 -1q-6 -6 -9 -12l-1 1q-27 17 -59.5 25.5t-65 7t-59.5 -19.5t-40 -51q-23 -59 10.5 -119.5
t93.5 -80.5q-4 -6 -6 -13q-1 1 -2 0v0q-73 21 -105 87t2 136zM206 -35q-35 9 -65 36.5t-47 62.5q-17 36 -19 75t9.5 73.5t38.5 61.5t66 38q1 -7 4 -14q-78 -36 -89 -101q-11 -71 22 -140q14 -29 38.5 -49t55.5 -23q28 -3 62 14t49 42q4 -5 9 -9q-26 -36 -61 -56t-73 -11z
M334 62q-4 24 17 58q5 7 18 26q6 -5 14 -10q-3 -4 -6 -10q-1 0 -3 -4.5t-4 -6.5t-1 -4q0 -3 2.5 -4.5t5.5 0t9 10.5q4 5 8 12q11 -7 21 -12q-9 -23 -19 -41q-6 -11 -10 -16q-1 -2 -4.5 -6.5t-5.5 -7.5q-42 -11 -42 16zM504 -181q-80 2 -124 65.5t-30 143.5q8 -3 16 1
q0 -34 7.5 -66.5t23 -62t43.5 -47t65 -14.5q60 4 100.5 58t31.5 113q5 1 9 2q8 2 14 7q19 -77 -28.5 -140t-127.5 -60zM927 81q-28 -46 -72 -67.5t-92 -16.5t-93 33q4 8 4 19q36 -34 86 -37t94 23t66 70q15 30 15.5 64.5t-12.5 63.5t-40.5 48t-64.5 19q-3 0 -4 -3
q-7 6 -14 11q8 3 16 8q-1 -6 5 -6q39 2 72.5 -19.5t49.5 -57.5q16 -39 11 -77.5t-27 -74.5z" />
    <glyph glyph-name="uniE60F" unicode="&#xe60f;" horiz-adv-x="1025" 
d="M731 410q0 15 -10.5 25.5t-25.5 10.5q-98 0 -181.5 -28t-148.5 -76.5t-135 -125.5q-11 -12 -11 -26q0 -15 11 -25.5t26 -10.5q14 0 26 11q15 13 42 40l38 38q79 71 154 100.5t179 29.5q15 0 25.5 11t10.5 26zM1024 523q0 -54 -11 -110q-27 -128 -106 -219t-204 -153
q-122 -62 -250 -62q-85 0 -164 27q-8 3 -50 24t-55 21q-9 0 -22.5 -18.5t-26 -40t-30 -40t-34.5 -18.5t-29 6.5t-17.5 14t-15.5 23.5q-1 3 -3.5 7t-3 5.5t-1.5 5t-1 7.5q0 20 17.5 42t39 37.5t39 32t17.5 27.5q0 2 -8 21.5t-9 25.5q-5 29 -5 60q0 65 25 125t68 105.5
t97 79.5t117 55q31 10 82.5 14t102.5 5t102 3.5t93.5 14t64.5 32.5l17 17l17 16l15 11l21 9l25 3q22 0 40.5 -26.5t27.5 -64t13.5 -70.5t4.5 -55z" />
    <glyph glyph-name="uniE610" unicode="&#xe610;" 
d="M710 467l-367 -363q-6 -6 -14.5 -6t-14.5 6t-6 14.5t6 14.5l367 363q6 6 14.5 6t14.5 -6t6 -14.5t-6 -14.5zM546 319zM973 477l-160 -169q-56 -59 -139 -59q-37 0 -71 12q-8 3 -11.5 11t-0.5 15.5t10.5 11.5t15.5 1q45 -17 90 -7t76 43l160 169q41 44 39 106
q-2 67 -53 114q-50 45 -115.5 45t-108.5 -46l-159 -170q-30 -31 -38 -75q-7 -43 10 -84q3 -8 -0.5 -15.5t-11 -11t-15.5 0t-11 11.5q-21 52 -12 106q9 56 48 96l159 170q55 58 138 59q82 1 143 -56q32 -29 49 -67q17 -36 18 -76q3 -79 -50 -135zM554 106q-10 -51 -46 -88
l-159 -170q-55 -58 -138 -59h-2q-81 0 -141 56q-32 29 -49 67q-17 36 -18 76q-3 79 50 135l160 169q39 42 96.5 54.5t113.5 -7.5q8 -3 11.5 -11t1 -16t-10.5 -11.5t-16 -0.5q-45 17 -90 7t-76 -43l-160 -169q-41 -44 -39 -106q2 -67 53 -114q49 -45 114 -45q66 0 110 46
l159 170q28 28 36.5 67t-3.5 78q-3 8 1 15.5t12.5 10t16 -1.5t9.5 -12q15 -49 4 -97z" />
    <glyph glyph-name="uniE611" unicode="&#xe611;" horiz-adv-x="1510" 
d="M1291 423q-3 11 -14 12l-349 51l-156 317q-5 9 -17 9t-16 -9l-156 -317l-349 -51q-12 -1 -15.5 -12t5.5 -19l252 -247l-60 -348q-1 -11 8 -17.5t19 -1.5l312 164l312 -164q4 -2 9 -2q6 0 11 4q9 6 7 17l-60 348l253 247q8 8 4 19z" />
    <glyph glyph-name="uniE612" unicode="&#xe612;" 
d="M682 200h101q15 -1 16 13q3 20 8 58.5t7 55.5l-1 10h-130v111q3 37 58 38h79v125q-61 4 -64 4q-76 -1 -99 -7q-53 -13 -84.5 -54.5t-32.5 -97.5v-118q-18 -1 -19 -1h-82q-9 1 -13 -2.5t-4 -11.5q1 -52 1 -109q-1 -15 15 -14h101v-344h-475v891h891v-891q-14 -1 -15 -1
h-243q-9 0 -13 2.5t-4 12.5v322z" />
    <glyph glyph-name="uniE613" unicode="&#xe613;" 
d="M740 317q-17 3 -21.5 10t-0.5 12l3 5q1 2 3.5 6.5t6.5 17t4.5 24.5t-4.5 27t-17 27q-15 15 -39.5 20t-48.5 1t-46 -10t-36 -11l-14 -6q-10 -4 -17.5 -5t-11 0.5t-5.5 3.5t-2 7.5t1 9.5t3 13.5t3 15.5q0 16 -2.5 29.5t-11.5 29t-24.5 23.5t-43.5 7.5t-66 -13.5
q-37 -13 -76 -38.5t-68 -53t-53 -53t-36 -42.5l-12 -17q-23 -29 -38 -59.5t-21 -51t-8.5 -40t-2 -26t0.5 -9.5q6 -52 31.5 -93t60.5 -66t82.5 -43t91.5 -26.5t93 -11.5q80 -7 166 12t160.5 65.5t104.5 111.5q18 38 18.5 71.5t-11.5 54.5t-31 37.5t-35.5 23.5t-29.5 10z
M410 -19q-117 -5 -199 45.5t-82 128.5q0 77 81.5 132.5t199.5 60.5q118 6 199 -38.5t81 -121.5q0 -78 -82.5 -140t-197.5 -67zM379 280q-32 -3 -57 -14t-39 -26t-24 -32t-13.5 -33t-4.5 -29.5t-1 -21.5l1 -8v-5q0 -3 2 -12.5t6 -17.5t12.5 -18t21.5 -16q70 -35 132.5 -21
t99.5 62q14 19 19.5 45.5t-2 54t-24.5 50.5t-51 35.5t-78 6.5zM339.5 75.5q-21.5 -2.5 -37 8.5t-15.5 29q0 19 14 35t36 18q24 2 39.5 -10t15.5 -31q0 -18 -15.5 -32.5t-37 -17zM431 154q-7 -6 -15 -5t-12 7q-4 7 -2.5 16t9.5 14q9 6 16.5 5t12.5 -8q3 -6 1 -14.5t-10 -14.5
zM816 380q9 0 16.5 6t8.5 16v2q4 35 -1.5 62t-17.5 41.5t-27.5 24t-32 12.5t-30.5 3.5t-22 -0.5l-9 -1q-11 0 -18 -7.5t-7 -18.5q0 -10 7 -17.5t18 -7.5q34 6 53.5 0t27.5 -20.5t10 -30t0 -27.5l-2 -11q0 -11 7.5 -18.5t18.5 -7.5zM797 679q-54 13 -127 -2q-1 0 -2 -0.5
t-2 -0.5l-1 -1q-12 -3 -19.5 -13t-7.5 -23q0 -15 11 -26t26 -11q20 3 34 8q6 0 19 1.5t35 -4t44.5 -14t46 -28t39.5 -46.5q29 -65 11 -123q-7 -18 -7 -36q0 -15 10.5 -24t26.5 -9t24.5 5.5t11.5 25.5q20 60 15 109t-21 85t-45.5 62.5t-59.5 41.5t-62 23z" />
    <glyph glyph-name="uniE614" unicode="&#xe614;" 
d="M672 674q49 1 81.5 -13.5t63.5 -43.5q38 3 94 31q17 10 23 13q-21 -57 -59 -86q-17 -13 -20 -15q17 0 34.5 4.5t39.5 13t29 10.5v-1q-27 -43 -62 -71q-5 -4 -15.5 -12t-12.5 -11q0 -75 -9 -118q-35 -155 -125.5 -258t-234.5 -147q-54 -17 -125.5 -21t-133.5 10
q-63 16 -108 35q-28 12 -52 27q-10 6 -16 10l28 -3q28 -2 30 1q8 1 26 2t27 3q67 15 110 40q3 2 12 7t14.5 8t12.5 8t11 10q-26 -1 -55 9q-82 29 -116 118q68 -8 82 3q-24 2 -61 25q-86 54 -86 157q6 -3 19 -9t38 -11q20 -4 25 -2q-5 5 -17 14t-17 15q-64 80 -41 167
q5 22 19 48q1 0 1 -1q2 -4 9 -11l8 -8q21 -26 55 -52q52 -41 103 -66t121 -43q43 -10 82 -10q-5 19 -4.5 43t5.5 43q25 89 104 123q17 7 41 12q8 1 22 3z" />
    <glyph glyph-name="uniE615" unicode="&#xe615;" 
d="M873 710h-733q-59 0 -99.5 -46t-40.5 -107v-531q0 -59 39.5 -97.5t100.5 -38.5h733q61 0 106 39t45 97v531q0 60 -45.5 106.5t-105.5 46.5zM35 563q1 42 31.5 74t73.5 32h733q37 0 66 -26t36 -62l-400 -411q-29 -28 -69 -28.5t-69 27.5zM41 26v477l258 -255l-259 -225v2z
M873 -69h-733q-63 0 -91 49l277 242l83 -82q40 -40 97 -40q61 0 101 39l75 77l282 -235q-27 -50 -91 -50zM983 26q0 -1 -1.5 -3t-2.5 -3l-268 226l272 279v-499z" />
    <glyph glyph-name="uniE616" unicode="&#xe616;" 
d="M116 218q-25 -59 -28.5 -108.5t16.5 -59.5q14 -7 34.5 7.5t40.5 45.5q16 -66 76 -116q-31 -12 -48.5 -29t-17.5 -38q0 -33 46 -57t112 -24q58 0 102.5 19.5t53.5 48.5h9h10q9 -29 53 -48.5t103 -19.5q65 0 111 24t46 57q0 21 -17.5 38t-48.5 29q60 50 76 116
q21 -31 41 -45.5t34 -7.5q20 10 16.5 59.5t-28.5 108.5q-20 46 -44.5 78t-45.5 40q1 6 1 12q0 36 -18 64v4q0 17 -7 31q-5 125 -81.5 207t-200.5 82t-200.5 -82t-81.5 -207q-7 -14 -7 -31v-4q-18 -28 -18 -64q0 -6 1 -12q-21 -8 -45.5 -40t-44.5 -78z" />
    <glyph glyph-name="uniE617" unicode="&#xe617;" 
d="M768 -212l-339 254l467 642l-601 -541l-295 221l1024 448zM256 -212v256l192 -128z" />
    <glyph glyph-name="uniE618" unicode="&#xe618;" 
d="M316 692q23 3 47 3h3q24 0 47 -3q9 -1 19 -3l14 -2q6 -1 12 -3q6 -1 11 -2t10 -3q4 -1 9 -2l8 -3q4 -1 7.5 -2.5t6.5 -2.5q4 -1 7 -2q3 -2 7 -3q3 -1 6 -2.5t6 -2.5q3 -2 5 -3t6 -2q2 -1 5 -3q2 -1 5 -2q3 -2 5 -3t4.5 -2.5t4.5 -2.5q3 -2 4 -2q3 -2 4 -3q2 -1 4.5 -2.5
t4.5 -2.5l4 -3l3 -2l4 -3q1 0 2 -1t2 -1q3 -2 3 -3q2 -1 3.5 -2.5t3.5 -2.5t3 -2l3 -3q3 -2 4 -2l3 -3l3 -3q1 0 2.5 -2t2.5 -3q1 0 3 -2l3 -3q1 -1 3 -2q1 -2 2 -3l3 -3l2 -2q1 0 1.5 -1l0.5 -1l2 -2l1 -1q1 -1 2 -3q2 -1 3 -2q1 -2 2 -3l1 -1l1 -1q1 -1 2 -3l2 -2l2 -2
q1 -1 1.5 -2t0.5 -2h2v-2q1 0 1.5 -1t1 -1.5l1.5 -1.5v-1q2 -2 2 -3q1 0 2 -2q1 -1 2 -3q0 -1 1 -2q0 -1 1 -1.5t1 -1t0.5 -1.5t1 -1.5l1.5 -1.5v-1l1 -1q1 -1 1 -1.5v-1.5l1 -1l1 -1q1 -1 1 -1.5t0.5 -1.5t1 -1t1 -1t0.5 -1.5v-1.5l1 -1l1 -3q1 0 1.5 -1t0.5 -2q1 -1 1 -2
q1 -1 1 -2q1 -1 1 -1.5t0.5 -1t0.5 -1.5l1 -1l1 -3v-1l1 -1l1 -3q1 -1 1 -2t1 -3v-1q1 -1 1 -2q1 0 1 -2q1 -1 1 -3l1 -1v-1q1 -2 1 -3l1 -1v-1.5v-1.5l1 -1q0 -1 1 -2v-3l1 -2q0 -1 1 -3v-1q0 -1 0.5 -1.5t0.5 -1.5v-1q0 -1 1 -2v-1v-1v-1q1 -1 1 -3v-1v0q-10 1 -19 1
q-8 1 -15 1q-8 0 -17 -1q-14 0 -28 -2q-8 -1 -16 -3l-12 -2q-6 -2 -10 -3l-10 -2q-4 -2 -8 -3q-3 -1 -7 -2.5t-7.5 -2.5t-6.5 -2.5t-6 -2.5q-3 -2 -6 -3t-5 -2l-6 -3l-4 -2q-3 -2 -5 -3q-3 -2 -4.5 -2.5t-4.5 -2.5q-2 -1 -4.5 -2.5t-4.5 -2.5q-1 -1 -4 -3q-1 -1 -3 -2
q-3 -2 -4 -3l-4 -2l-3 -3q-2 -1 -3 -2t-4 -3l-3 -2q0 -1 -3 -3q-2 -1 -3 -2l-3 -3l-3 -3q-1 0 -3 -2q-1 -1 -2 -3l-1 -1q-1 -1 -2 -1l-3 -3l-2 -2l-3 -3l-2 -2q-1 -2 -2 -3q-2 -1 -2.5 -2t-2.5 -3q-1 -1 -2 -3l-2 -2q-1 -2 -2 -3l-2 -2q-1 -1 -2 -3l-2 -2q-1 -1 -2 -3t-2 -3
l-1 -1l-1 -1v-1l-1 -1q-1 -1 -2 -3q-1 -1 -2 -3l-2 -2q0 -1 -1 -3l-2 -2q0 -1 -0.5 -1.5t-0.5 -1t-0.5 -1.5l-0.5 -1l-2 -2v-1l-2 -2q0 -2 -1 -3l-1 -2v-2h-2v-2l-1 -1l-1 -3q-1 -1 -1 -3l-2 -2l-1 -1v-2v-1l-1 -1l-1 -1v-2t-1 -2q-1 -2 -1 -3v-1q-1 -1 -1 -1.5t-1 -1.5v-1
q-1 -2 -1 -2.5t-1 -2.5q0 -1 -1 -3v-1q0 -1 -1 -2v-2q-1 -1 -1 -2l-1 -1v-1.5t-0.5 -1.5t-0.5 -2t-0.5 -1.5t-0.5 -1.5v-1q0 -2 -1 -3v-1q0 -1 -0.5 -1.5t-0.5 -1.5v-1q0 -1 -0.5 -2.5t-0.5 -2.5l-1 -3v-2q-1 -2 -1 -3v-2q0 -1 -0.5 -1.5t-0.5 -1.5v-1v-1v-3l-1 -2v-3v-3
l-1 -1v-2v-2v-2v-3l-1 -2v-1v-2v-2v-2v-1v-1v-2v-2v-2v-2v-1v-3v-2v-3v-2v-3v-2v-2v-1q1 -1 1 -3v-2v-2v-3q0 -1 0.5 -1.5t0.5 -1.5v-2v-2v-1q0 -1 1 -2v-3q0 -2 0.5 -2.5t0.5 -2.5v-1v-1q1 -1 1 -3t0.5 -2.5t0.5 -2.5t1 -3v-2q1 -2 1 -3v-2l1 -1v-2q0 -1 1 -2v-2v-1l1 -1
q-10 -1 -18 -1q-8 -1 -15.5 -1t-14.5 1q-14 0 -29 2q-9 1 -18 3q-6 1 -14 2q-6 1 -13 3q-6 1 -13 2q-6 2 -12 3l-12 2l-5 -2l-5 -3l-5 -2l-5 -3l-5 -2l-5 -3l-5 -2l-5 -3l-5 -2l-5 -3l-5 -2l-5 -3l-5 -3l-5 -2l-6 -3l-5 -2l-5 -3l-5 -2l-5 -3l-5 -2l-5 -3l-5 -2l-5 -3l-5 -3
l-4 -1l1 1l1 3v3l1 2l1 3l1 2l1 3l1 2l1 3v2l1 3l1 2l1 3l1 3l1 2v3l1 2l1 3l1 2l1 3l1 2l1 3v2l1 3l1 2l1 3l1 3l1 2v3l1 2l1 3l1 2l1 3l1 2l1 3v2l1 3l1 3l1 2l1 3l1 2v3l1 1q-1 1 -2 1l-3 3q-1 0 -4 2l-1 1l-2 2q-2 1 -3 2q-2 1 -4 3l-3 3q-2 1 -3 2q-3 2 -3 3q-1 0 -2 1
l-1 1q-3 2 -3 3q-2 1 -3 2l-3 3q-2 1 -3 2l-3 3q-1 1 -3 2q-2 2 -2 3q-2 2 -3 2q-1 2 -3 3q0 1 -2 3q-2 1 -3 2q-1 2 -2 3l-3 2q0 1 -1 2q-1 0 -1 1l-2 2l-3 3q-1 2 -2 2l-1 2l-1 1q-1 2 -2 2q-1 2 -2 3l-2 3l-1 1l-1 1q-1 1 -2 2.5t-2 2.5q0 1 -2 3l-2 2q-1 2 -2 3l-1 2
q-1 1 -2 3t-2 2q0 1 -1 3q-2 2 -2 2.5v1.5l-1 1q-1 1 -2 3q-1 1 -1.5 2.5t-1.5 2.5v1l-1 1l-1 1q-1 1 -1 1.5t-1 1.5v1q-1 2 -1 3l-2 2q0 2 -1 3t-1 3q-1 1 -1 2q-1 2 -1 3q-1 0 -2 2q0 1 -0.5 2.5t-1.5 2.5q0 2 -1 3v2l-2 3q0 1 -1 2v3l-1 2q-1 1 -1.5 3t-0.5 2.5t-1 2.5
q0 2 -0.5 3t-0.5 2q-1 2 -1 3t-0.5 2.5t-0.5 2.5q-1 1 -1 2v3q0 1 -1 2v3q-1 1 -1 3v1v1q0 1 -1 3v1v1q0 2 -1 3v2v3v2q-1 2 -1 3v1v1v3v3q-1 1 -1 2v3v1v2v2v2v3v1v1v1v2v2v3v2v2v1v1v1v2v2l0.5 0.5t0.5 1.5v2v2v2v1v3q1 0 1 1v1v2v1v2q0 1 0.5 2l0.5 1v2q0 1 0.5 2t0.5 2
v2v1q0 1 1 1v3q0 2 1 2v1v2l1 2v2q0 1 0.5 2t0.5 2t1 2v1v1q0 1 1 3q0 2 1 3v1q0 1 0.5 1.5t0.5 1.5v1l1 2q1 2 1 3l1 1v1q1 2 1 3t1 2v2l1 1v1q0 1 0.5 1.5t0.5 1.5t1 1q0 1 1 3v1q0 1 0.5 1.5t1.5 2.5q0 1 1 2q1 2 1 2.5v1.5l1 1q1 1 2 3l1 1v1q1 2 1 3l1 1q0 1 0.5 1.5
l1.5 1.5v1q1 2 1 3q1 2 1.5 2.5t1.5 2.5v1q1 1 2 1q0 1 1 3q1 0 2 2q0 1 0.5 1.5t0.5 1.5q1 0 2 3l2 2q1 1 1 2q2 2 2 3q2 2 2 2.5t1 1.5l1 1q1 2 2 3l2 2l2 3l2 2q0 1 2 3l2 2l2 3l2 2q1 2 3 3q0 1 2 3l2 2l3 3l2 2l3 3l2 2l2 2l1 1l2 2l3 3q2 2 3 2l3 3l3 3q1 0 3 2l3 3
q1 1 3 2.5t3 2.5q1 0 3.5 2t3.5 3l4 2l3 3q1 1 4 2.5t4 2.5t3.5 2.5t4.5 2.5q2 2 4 3q1 0 4 2q4 2 4 3q2 0 5 2q2 1 5 3t4.5 2.5t5.5 2.5q2 1 5 2q4 2 5 3l6 2q3 2 6 3t6 3q4 1 7 2q4 1 7 3l8 2q4 2 7.5 3t8.5 2t10 2.5t10 2.5q6 2 12 3l14 2q10 2 19 3zM615 283
q-13 0 -24.5 -11t-11.5 -24.5t11.5 -24.5t24.5 -11q19 0 32 10.5t13 25t-13 25t-32 10.5zM812 283q-14 0 -25 -11t-11 -24.5t11 -24.5t25 -11q19 0 31.5 10.5t12.5 25t-12.5 25t-31.5 10.5zM248 543q-21 0 -37.5 -13t-16.5 -32t16.5 -32t37.5 -13q20 0 32.5 12.5t12.5 32.5
t-12.5 32.5t-32.5 12.5zM499 453q20 0 32 12.5t12 32.5t-12 32.5t-32 12.5q-21 0 -37.5 -13t-16.5 -32t16.5 -32t37.5 -13zM488 342q1 1 2 1q0 1 0.5 1t1.5 1l1 1l3 3l1 1q1 0 1 1q1 0 3 2l1 1q1 1 1.5 1t1.5 1l1 1l1 1l1 2q1 0 3 1q3 2 3 3l3 2q2 1 3.5 2t3.5 2q1 1 3 2.5
t3 1.5l3 3q3 1 4 1.5t4 2.5q2 1 3 2l4 2q1 1 4 2q2 1 4 3l4 2q2 0 5 2l5 2q2 1 5 2q2 1 5 2l5 2q3 2 6 3l6 2l6 2q3 1 6.5 2t7.5 2t8 3q5 1 9 2q6 1 10 2l12 2l16 2q20 2 41 2h1q20 0 39 -2q8 -1 15 -2t12 -2q4 -1 10 -2q4 -1 8.5 -2.5t8 -2.5t7.5 -2l6 -2q3 -1 7 -2
q2 -1 5 -2t6 -3l5 -2q3 -1 5 -2t5 -2q2 -1 5 -2q3 -2 4 -2l4 -2l5 -2q3 -2 4 -3t3.5 -2t3.5 -2q3 -2 4 -2q1 -1 3 -2q2 -2 4 -3l3 -2q2 -1 3.5 -2t3.5 -2q0 -1 3 -2l2 -2q1 -1 4 -3l1 -1h1l2 -2l1 -1l3 -2l3 -2l2 -2q1 -1 3 -2l2 -3q1 0 3 -2l1 -1q1 -1 1.5 -1t0.5 -1l1 -1
l3 -2q0 -1 1 -2h1q1 -2 2 -3q2 -1 2.5 -1.5t1 -1.5t1 -1t1 -1t1 -1t1 -1t0.5 -2h2v-2h2v-2q2 -1 2 -2l2 -2l1 -1l1 -1q1 -2 2 -2q0 -1 1 -2l1 -1q1 -1 1 -1.5t1 -1.5l1 -1q0 -1 1 -2l2 -2v-1q1 -1 1.5 -1t0.5 -1l1 -1l2 -2q0 -1 0.5 -1.5t0.5 -1.5l1 -2q1 0 1 -1l1 -1
q1 -2 1.5 -2.5t1 -2t1.5 -1.5q0 -1 1 -2v-2h2v-2t0.5 -1t1.5 -2q0 -1 1 -2q0 -1 1 -2.5t1 -2.5l1 -2l1 -2l1 -2q1 -1 1 -2l1 -2q0 -1 0.5 -1.5t0.5 -1.5q1 -1 1 -2q1 -1 1 -2l1 -2q0 -2 0.5 -2.5t0.5 -1.5l1 -1v-1l1 -3l1 -1v-1v-1q0 -1 0.5 -1t0.5 -1v-1q0 -1 1 -2
q0 -2 1 -2v-2q0 -1 1 -2v-1v-1v-1q1 -1 1 -2v-1q0 -1 1 -2v-1v-3q1 -1 1 -2v-2q0 -1 1 -2v-1v-1v-2q1 -2 1 -3v-1v-2v-1l1 -2v-1v-1v-2v-1v-1q0 -1 1 -3v-2v-1v-1v-1v-1v-1v-1v-2v-2v-1v-2v-2v-2v-1v-2v-1v-3v-2v-1v-1v-2q0 -1 -1 -2v-2v-2v-3q0 -1 -1 -2v-2v-2l-1 -2v-3v-2
q-1 -1 -1 -2v-2q0 -1 -1 -2v-2q0 -1 -0.5 -1.5l-0.5 -0.5v-2v-1q-1 0 -1 -2l-1 -2v-2q-1 -1 -1 -3l-1 -1q0 -2 -1 -3v-2q-1 -1 -1 -2t-1 -2v-2l-2 -2v-3q-1 0 -1 -0.5t-0.5 -1t-0.5 -1.5q-1 -1 -1 -2v-1l-1 -1v-1q-1 -2 -1.5 -2.5t-0.5 -2.5q-1 0 -2 -2q0 -1 -1 -2
q0 -1 -1 -2q0 -1 -1 -2q0 -1 -1 -2v-2h-1q-1 -1 -1.5 -2.5t-1.5 -2.5l-1 -2q-1 -1 -1.5 -2t-1.5 -2l-1 -2q-1 -1 -1 -1.5t-1 -1.5q0 -1 -1 -2l-2 -2l-1 -2l-2 -2q0 -1 -1 -2t-2 -3l-2 -2v-1q-1 0 -1 -1l-2 -2l-2 -2q0 -1 -1 -1v-1q-1 -1 -2 -3q-1 0 -2 -2l-1 -1l-1 -1l-2 -2
l-2 -2l-2 -2v-2h-2v-2h-2q0 -1 -0.5 -2t-1.5 -1l-2 -2l-2 -2q-1 -2 -2 -2q-1 -1 -2 -2.5t-2 -2.5t-2.5 -2t-2.5 -2l-2 -2q-1 -1 -3 -2q-1 -1 -2 -2.5t-2 -2.5q-2 -1 -3 -2q-1 0 -2 -2q-1 0 -3 -2q-1 -1 -3 -2l-2 -2l-3 -3q-2 -2 -3 -2l-2 -2q-1 0 -2 -1t-1.5 -1t-2.5 -2
l-1 -1v-1l1 -2l1 -3v-2l1 -2l1 -2v-2l1 -2l1 -3v-2l1 -2l1 -2v-2l1 -2l1 -3v-2l1 -2l1 -2v-2l1 -2v-3l1 -2l1 -2v-2l1 -2l1 -2v-2l1 -3l1 -2v-2l1 -2l1 -2v-2l1 -3l1 -2v-2l1 -2l1 -2v-2l1 -3v-2l1 -1l-3 1l-4 2l-4 3l-4 2l-4 2l-4 2l-4 2l-3 2l-4 3l-4 2l-4 2l-4 2l-4 2
l-4 2l-4 3l-4 2l-4 2l-4 2l-4 2l-4 2l-4 2l-4 3l-4 2l-4 2l-4 2h-2q-3 -1 -8 -2q-4 -1 -9 -2t-9 -2t-9 -3q-6 -1 -11 -2t-11 -2l-14 -2q-12 -2 -22 -2h-12h-16q-13 0 -27 2l-16 2l-12 2q-4 1 -10 2q-4 2 -8.5 3t-8.5 2t-7 2t-7 2q-2 1 -6 2q-2 1 -6 2q-3 2 -5 3q-4 1 -6 2
q-3 1 -5 2t-5 2l-4 2q-3 2 -5 2q-2 2 -4 3q-1 0 -4 1.5t-4 2.5q-1 0 -4 2q-1 0 -4 2t-3.5 2.5t-3 2t-3.5 2.5q-1 0 -3.5 1.5t-3.5 2.5q-2 1 -3 2t-3 2q-2 2 -3 2q0 1 -3 3l-1 1h-2l-2 3l-3 2q-1 1 -3 2l-2 2l-2 1l-1 2q-2 1 -2 2l-3 2q-1 2 -1.5 2t-2.5 2l-2 2l-3 3l-2 2
l-2 2l-2 2q-2 2 -2 2.5t-1 0.5v2h-2v2q-1 0 -2 2q-2 1 -2 2q-1 0 -2 1v1l-2 2q-1 2 -2 2q0 1 -1 2q0 1 -1 1q0 1 -1 2l-1 2l-2 2l-2 2v1l-1 1q-1 2 -2 2q0 1 -1 3l-2 2v1t-0.5 1t-1.5 1v1q-1 2 -2 2v2h-1q0 1 -1 3q-1 1 -1 1.5t-1 1.5v1q-1 1 -1 2l-2 2q0 1 -1 1v1v1
q-1 1 -1 1.5t-1 2.5l-1 2q0 1 -1 2q0 1 -1 2q0 1 -1 2q0 1 -1 2q0 1 -1 3v1q-1 1 -1 3q-1 1 -1 2l-1 2q0 1 -1 1v1v3q-1 1 -1 1.5t-1 1.5v1q0 1 -1 2v1v1q0 1 -1 2v3q-1 0 -1 1t-1 3v2v1q-1 1 -1 2v1q0 1 -1 3v2v1q0 1 -0.5 1t-0.5 1v1v2q0 1 -1 2v1v1v2v1l-1 2v1v1v2v1v2
l-0.5 0.5t-0.5 1.5v2v1v1v2v1v1v2v2q0 1 -0.5 1.5l-0.5 0.5v2v1v2v1v1v2v2v1v2l0.5 0.5t0.5 1.5v2v1v1v1v1v2v2v1v2q1 1 1 2v2v2v2l1 1v2v1v1v2q1 1 1 2v2q0 1 1 2v1v1v2q1 1 1 2v2v1l1 2v2q1 2 1 2.5t0.5 1t0.5 1.5v2l1 2v1q0 1 0.5 1t0.5 1v1v1q1 1 1 1.5t0.5 1t0.5 1.5v2
q1 1 1 2l1 1v1q1 1 1 2t1 2q0 1 1 2v1q0 1 1 2v2q1 1 1 2q1 2 1 2.5v1.5h1q1 2 1 2.5v1.5h2v2v1q1 1 1.5 2t1.5 2q0 1 1 2q0 1 0.5 1.5t0.5 1t0.5 1t0.5 1.5l2 2q0 1 1 2l1 2q1 2 2 2v2h1q0 1 1 3q2 1 2 2l1 1v1q1 1 1.5 2t1.5 2l2 2l1 2q1 1 2 3l2 2l1 2q2 1 2 2l2 2
q1 2 2 2v2h2l1 2q0 1 1 1l1 2q1 0 1 1l1 1l3 3l2 1q1 1 2 3q1 1 2 1.5t2 2.5z" />
    <glyph glyph-name="uniE619" unicode="&#xe619;" 
d="M311 389q33 0 56 23.5t23 56.5t-23 56t-56 23t-56.5 -23t-23.5 -56t23.5 -56.5t56.5 -23.5zM721 389q33 0 56.5 23.5t23.5 56.5t-23.5 56t-56.5 23t-56.5 -23t-23.5 -56t23.5 -56.5t56.5 -23.5zM803 238q-16 11 -36 7.5t-31 -20.5q-38 -54 -96 -85t-124 -31t-124.5 31
t-95.5 85q-11 17 -31 20.5t-36.5 -8t-20.5 -31.5t8 -36q51 -74 130.5 -116t169.5 -42t169.5 42t130.5 116q11 16 7.5 36t-20.5 32v0zM524 -133z" />
    <glyph glyph-name="uniE61A" unicode="&#xe61a;" 
d="M852 812h-680q-71 0 -121.5 -50.5t-50.5 -121.5v-680q0 -71 50.5 -121.5t121.5 -50.5h680q71 0 121.5 50.5t50.5 121.5v680q0 71 -50.5 121.5t-121.5 50.5zM384 -20h-128v448h128v-448zM320 492q-27 0 -45.5 18.5t-18.5 45.5t18.5 45.5t45.5 18.5t45.5 -18.5t18.5 -45.5
t-18.5 -45.5t-45.5 -18.5zM832 -20h-128v256q0 27 -18.5 45.5t-45.5 18.5t-45.5 -18.5t-18.5 -45.5v-256h-128v448h128v-79q58 79 112 79q60 0 102 -47t42 -113v-288z" />
    <glyph glyph-name="uniE61B" unicode="&#xe61b;" 
d="M64 288q0 -145 83.5 -261t216.5 -162q5 -1 8.5 -1t5.5 1t3.5 2.5t2 4.5t0.5 4v6v5v78q-38 -5 -66.5 1t-43 19.5t-22.5 25.5t-13 26.5t-5 16.5q-8 13 -23.5 24t-23.5 17.5t-3 12.5q45 23 100 -58q30 -44 104 -25q8 35 34 60q-101 18 -150 75t-49 138q0 77 48 132
q-19 57 5 121q26 2 57.5 -10t44.5 -20.5t22 -15.5q51 14 112 14q63 0 114 -14q65 49 122 44q23 -62 5 -118q49 -56 49 -133q0 -81 -49.5 -138t-150.5 -75q38 -37 38 -91v-113v-2q1 -5 1.5 -8t4 -5.5t9.5 -2.5q135 46 220 162.5t85 262.5q0 122 -60 225t-163 163t-225 60
t-225 -60t-163 -163t-60 -225z" />
    <glyph glyph-name="uniE61C" unicode="&#xe61c;" horiz-adv-x="1025" 
d="M437 -6q0 -61 -42.5 -98.5t-135.5 -40.5q-117 67 -187 183q18 44 69 73t114 29q34 -1 66 -11q8 -5 26.5 -18t26 -18t20.5 -15.5t19 -17.5t12 -17.5t9 -20.5q3 -14 3 -28zM512 812q-109 0 -206 -43t-169 -120q59 33 127 33h257l-58 -61h-67q35 -20 54 -58.5t19 -86.5
q0 -77 -76 -137q-32 -25 -41.5 -39.5t-9.5 -36.5q0 -23 70 -75q3 -3 5 -4q60 -46 80 -82.5t20 -96.5q0 -61 -50.5 -112.5t-135.5 -71.5q87 -33 181 -33q104 0 199 40.5t163.5 109t109 163.5t40.5 199t-40.5 199t-109 163.5t-163.5 109t-199 40.5zM768 428v-128h-64v128h-128
v64h128v128h64v-128h128v-64h-128zM366 473q9 -68 -18 -108.5t-79 -39.5q-53 2 -95.5 46t-51.5 111q-9 68 21.5 113.5t82.5 44.5q51 -2 91 -50.5t49 -116.5zM221 170q-108 0 -183 -64q-38 93 -38 194q0 84 26 162q6 -77 57.5 -126.5t135.5 -49.5q11 0 25 1q-13 -26 -13 -50
q0 -20 8.5 -34t27.5 -33h-23h-23z" />
    <glyph glyph-name="uniE61D" unicode="&#xe61d;" 
d="M329 44q0 -46 -32 -78t-77.5 -32t-77.5 32t-32 78t32 78t77.5 32t77.5 -32t32 -78zM622 -26q1 -16 -10 -28q-10 -12 -27 -12h-77q-14 0 -24.5 9.5t-11.5 23.5q-13 131 -105.5 224t-223.5 106q-14 1 -23.5 11t-9.5 25v77q0 16 12 27q9 9 24 9h3q92 -7 175 -45.5
t148 -103.5t103.5 -148.5t46.5 -174.5zM914 -27q1 -16 -10 -27q-10 -12 -26 -12h-82q-15 0 -25.5 10t-11.5 25q-6 122 -57 233t-132.5 192t-192 132t-233.5 59q-14 0 -24 10.5t-10 25.5v81q0 16 11 27q10 10 25 10h2q150 -8 286.5 -69t243.5 -168q107 -106 168 -243t68 -286
z" />
    <glyph glyph-name="uniE61E" unicode="&#xe61e;" 
d="M512 769q-95 0 -182 -37t-150 -100t-100 -150t-37 -182t37 -182t100 -150t150 -100t182 -37t182 37t150 100t100 150t37 182t-37 182t-100 150t-150 100t-182 37zM512 -127q-116 0 -214 57.5t-155.5 155.5t-57.5 214t57.5 214t155.5 155.5t214 57.5t214 -57.5
t155.5 -155.5t57.5 -214t-57.5 -214t-155.5 -155.5t-214 -57.5zM384 87l364 213l-364 213v-426z" />
    <glyph glyph-name="uniE61F" unicode="&#xe61f;" 
d="M828 -16q-86 -86 -201 -116.5t-230.5 0t-201.5 116.5t-116.5 201.5t0 231t116.5 201.5t201.5 116.5t230.5 0t201 -116.5t116.5 -201.5t0 -231t-116.5 -201.5zM794 585q-57 57 -132 87t-151 30t-151 -30t-133 -87q-77 -77 -104 -180.5t0 -206.5t104 -180q58 -58 133 -88
t151 -30t151 30t132 88q77 77 104.5 180t0 206.5t-104.5 180.5zM583 419h47v-236h-47v236zM394 419h48v-236h-48v236z" />
    <glyph glyph-name="uniE620" unicode="&#xe620;" 
d="M256 1h171v598h-171v-598zM597 599v-598h171v598h-171z" />
    <glyph glyph-name="uniE621" unicode="&#xe621;" 
d="M256 621l581 -321l-581 -319v640z" />
  </font>
</defs>
</svg>
